<svg xmlns="http://www.w3.org/2000/svg" viewBox="0 0 640 420" role="img" aria-labelledby="title desc">
  <title id="title">Dia Branco</title>
  <desc id="desc">Ilustração clara com sol, chuva e paisagem à beira-mar.</desc>
  <rect width="640" height="420" fill="#f7f5ef"/>
  <circle cx="500" cy="94" r="64" fill="#d7a536"/>
  <path d="M0 300c80-48 160-48 240 0s160 48 240 0 130-42 160 0v120H0z" fill="#2f5f9f" opacity=".24"/>
  <path d="M90 284c80-54 160-54 240 0s160 54 240 0" fill="none" stroke="#1d7773" stroke-width="14" stroke-linecap="round"/>
  <path d="M128 142h220c34 0 62 28 62 62s-28 62-62 62H128c-34 0-62-28-62-62s28-62 62-62z" fill="#ffffff" stroke="#172124" stroke-width="10"/>
  <path d="M146 238c12 22 28 22 40 0s28-22 40 0 28 22 40 0 28-22 40 0" fill="none" stroke="#2f5f9f" stroke-width="8" stroke-linecap="round"/>
  <text x="320" y="92" text-anchor="middle" fill="#172124" font-family="Inter, Arial, sans-serif" font-size="48" font-weight="800">Dia Branco</text>
</svg>
